<?xml version="1.0" encoding="UTF-8"?>
<svg width="18px" height="23px" viewBox="0 0 18 23" version="1.1" xmlns="http://www.w3.org/2000/svg" xmlns:xlink="http://www.w3.org/1999/xlink">
    <!-- Generator: Sketch 44.1 (41455) - http://www.bohemiancoding.com/sketch -->
    <title>Fill 27</title>
    <desc>Created with Sketch.</desc>
    <defs></defs>
    <g id="Symbols" stroke="none" stroke-width="1" fill="none" fill-rule="evenodd">
        <g id="Icon/24x24/backpack" transform="translate(-3.000000, 0.000000)" fill="#FFFFFF">
            <path d="M6,21 C5.448,21 5,20.552 5,20 L5,11.815 C5.314,11.928 5.647,12 6,12 L11,12 L11,13 C11,14.0322266 13,13.9708252 13,13 L13,12 L18,12 C18.353,12 18.686,11.928 19,11.815 L19,20 C19,20.552 18.552,21 18,21 L6,21 Z M10,3 L14,3 L14,2 L10,2 L10,3 Z M16,3 L16,0 L8,0 L8,3 C8,3 3,3 3,4 L3,11 L3,20 C3,21.654 4.346,23 6,23 L18,23 C19.654,23 21,21.654 21,20 L21,11 L21,4 C21,3 16,3 16,3 Z" id="Fill-27"></path>
        </g>
    </g>
</svg>