<?xml version="1.0" encoding="UTF-8"?>
<svg width="24px" height="24px" viewBox="0 0 24 24" version="1.1" xmlns="http://www.w3.org/2000/svg" xmlns:xlink="http://www.w3.org/1999/xlink">
    <!-- Generator: Sketch 43 (38999) - http://www.bohemiancoding.com/sketch -->
    <title>Fill 39</title>
    <desc>Created with Sketch.</desc>
    <defs></defs>
    <g id="Symbols" stroke="none" stroke-width="1" fill="none" fill-rule="evenodd">
        <g id="Icon/24x24/smile" fill="#FFFFFF">
            <path d="M15,11 L18,11 L18,8 L15,8 L15,11 Z M6,11 L9,11 L9,8 L6,8 L6,11 Z M16.64,13.855 L18.497,14.6 C17.427,17.272 14.876,19 12,19 C9.124,19 6.573,17.272 5.503,14.6 L7.36,13.855 C8.125,15.766 9.946,17 12,17 C14.054,17 15.875,15.766 16.64,13.855 L16.64,13.855 Z M12,22 C6.486,22 2,17.514 2,12 C2,6.486 6.486,2 12,2 C17.514,2 22,6.486 22,12 C22,17.514 17.514,22 12,22 L12,22 Z M12,0 C5.383,0 0,5.383 0,12 C0,18.617 5.383,24 12,24 C18.617,24 24,18.617 24,12 C24,5.383 18.617,0 12,0 L12,0 Z" id="Fill-39"></path>
        </g>
    </g>
</svg>