<?xml version="1.0" encoding="UTF-8"?>
<svg width="70px" height="13px" viewBox="0 0 70 13" version="1.1" xmlns="http://www.w3.org/2000/svg" xmlns:xlink="http://www.w3.org/1999/xlink">
    <!-- Generator: Sketch 44.1 (41455) - http://www.bohemiancoding.com/sketch -->
    <title>Combined Shape</title>
    <desc>Created with Sketch.</desc>
    <defs></defs>
    <g id="Symbols" stroke="none" stroke-width="1" fill="none" fill-rule="evenodd">
        <g id="rating" fill="#F2F1F7">
            <g id="stars-outline">
                <g>
                    <path d="M0,0 L70,0 L70,13 L0,13 L0,0 Z M6.52542373,10.0454545 L10.0122854,11.8714641 L9.34635407,8.00391385 L12.1672844,5.26489958 L8.26885456,4.70063161 L6.52542373,1.18181818 L4.7819929,4.70063161 L0.883563039,5.26489958 L3.70449338,8.00391385 L3.03856206,11.8714641 L6.52542373,10.0454545 Z M20.7627119,10.0454545 L24.2495735,11.8714641 L23.5836422,8.00391385 L26.4045726,5.26489958 L22.5061427,4.70063161 L20.7627119,1.18181818 L19.019281,4.70063161 L15.1208512,5.26489958 L17.9417815,8.00391385 L17.2758502,11.8714641 L20.7627119,10.0454545 Z M35,10.0454545 L38.4868617,11.8714641 L37.8209303,8.00391385 L40.6418607,5.26489958 L36.7434308,4.70063161 L35,1.18181818 L33.2565692,4.70063161 L29.3581393,5.26489958 L32.1790697,8.00391385 L31.5131383,11.8714641 L35,10.0454545 Z M49.2372881,10.0454545 L52.7241498,11.8714641 L52.0582185,8.00391385 L54.8791488,5.26489958 L50.980719,4.70063161 L49.2372881,1.18181818 L47.4938573,4.70063161 L43.5954274,5.26489958 L46.4163578,8.00391385 L45.7504265,11.8714641 L49.2372881,10.0454545 Z M63.4745763,10.0454545 L66.9614379,11.8714641 L66.2955066,8.00391385 L69.116437,5.26489958 L65.2180071,4.70063161 L63.4745763,1.18181818 L61.7311454,4.70063161 L57.8327156,5.26489958 L60.6536459,8.00391385 L59.9877146,11.8714641 L63.4745763,10.0454545 Z" id="Combined-Shape"></path>
                </g>
            </g>
        </g>
    </g>
</svg>