<?xml version="1.0" encoding="UTF-8"?>
<svg width="14px" height="18px" viewBox="0 0 14 18" version="1.1" xmlns="http://www.w3.org/2000/svg" xmlns:xlink="http://www.w3.org/1999/xlink">
    <!-- Generator: Sketch 43 (38999) - http://www.bohemiancoding.com/sketch -->
    <title>Group 3</title>
    <desc>Created with Sketch.</desc>
    <defs>
        <rect id="path-1" x="0" y="2" width="14" height="2" rx="1"></rect>
        <path d="M4.375,1.5 C4.375,0.671572875 5.03991613,0 5.86539626,0 L8.13460374,0 C8.95772687,0 9.625,0.665797234 9.625,1.5 L9.625,3 L4.375,3 L4.375,1.5 Z" id="path-2"></path>
    </defs>
    <g id="Screens" stroke="none" stroke-width="1" fill="none" fill-rule="evenodd">
        <g id="Desktop-HD" transform="translate(-934.000000, -445.000000)">
            <g id="Group-3" transform="translate(934.000000, 445.000000)">
                <path d="M0,7.00828552 C0,6.4514248 0.449948758,6 1.00684547,6 L12.9931545,6 C13.5492199,6 14,6.44915572 14,7.00828552 L14,14.8265779 C14,16.483161 12.6576211,17.826087 10.9966488,17.826087 L3.00335124,17.826087 C1.34464615,17.826087 0,16.4924728 0,14.8265779 L0,7.00828552 Z M3.5,10 C3.5,10.5561352 3.94902676,11 4.50292933,11 L9.49707067,11 C10.0621186,11 10.5,10.5522847 10.5,10 C10.5,9.44386482 10.0509732,9 9.49707067,9 L4.50292933,9 C3.93788135,9 3.5,9.44771525 3.5,10 Z M3.5,13.826087 C3.5,14.3822221 3.94902676,14.826087 4.50292933,14.826087 L9.49707067,14.826087 C10.0621186,14.826087 10.5,14.3783717 10.5,13.826087 C10.5,13.2699518 10.0509732,12.826087 9.49707067,12.826087 L4.50292933,12.826087 C3.93788135,12.826087 3.5,13.2738022 3.5,13.826087 Z" id="Combined-Shape" fill="#CCCCCC"></path>
                <g id="Rectangle-3">
                    <use fill="#CCCCCC" fill-rule="evenodd" xlink:href="#path-1"></use>
                    <rect stroke="#CCCCCC" stroke-width="2" x="1" y="3" width="12" height="1" rx="0.5"></rect>
                </g>
                <g id="Rectangle-3">
                    <use fill="#CCCCCC" fill-rule="evenodd" xlink:href="#path-2"></use>
                    <path stroke="#CCCCCC" stroke-width="2" d="M8.625,2 L5.375,2 L5.375,1.5 C5.375,1.22136194 5.59470441,1 5.86539626,1 L8.13460374,1 C8.40658595,1 8.625,1.2192368 8.625,1.5 L8.625,2 Z"></path>
                </g>
            </g>
        </g>
    </g>
</svg>